<svg width="12" height="12" viewBox="0 0 12 12" fill="none" xmlns="http://www.w3.org/2000/svg">
<path d="M6 10C5.725 10 5.48966 9.90217 5.294 9.7065C5.09833 9.51083 5.00033 9.27533 5 9C4.99966 8.72467 5.09766 8.48933 5.294 8.294C5.49033 8.09867 5.72566 8.00067 6 8C6.27433 7.99933 6.50983 8.09733 6.7065 8.294C6.90316 8.49067 7.001 8.726 7 9C6.999 9.274 6.90116 9.5095 6.7065 9.7065C6.51183 9.9035 6.27633 10.0013 6 10ZM3.775 5.5L2.4 4.5375C2.31666 4.5875 2.2375 4.63967 2.1625 4.694C2.0875 4.74833 2.0125 4.8045 1.9375 4.8625C1.77083 4.99583 1.58133 5.0605 1.369 5.0565C1.15666 5.0525 0.97533 4.97533 0.824996 4.825C0.68333 4.68333 0.612496 4.50833 0.612496 4.3C0.612496 4.09167 0.69583 3.925 0.862496 3.8C0.904163 3.76667 0.94383 3.7375 0.981496 3.7125C1.01916 3.6875 1.05866 3.65833 1.1 3.625L0.874996 3.475C0.73333 3.375 0.647996 3.24167 0.618996 3.075C0.589996 2.90833 0.62533 2.75417 0.724996 2.6125C0.824663 2.47083 0.960163 2.38333 1.1315 2.35C1.30283 2.31667 1.459 2.35 1.6 2.45L10.4 8.625C10.5417 8.725 10.6292 8.85833 10.6625 9.025C10.6958 9.19167 10.6625 9.34583 10.5625 9.4875C10.4625 9.62917 10.3272 9.71467 10.1565 9.744C9.98583 9.77333 9.8295 9.73783 9.6875 9.6375L5.3 6.5625C5.08333 6.60417 4.873 6.66467 4.669 6.744C4.465 6.82333 4.267 6.92117 4.075 7.0375C3.89166 7.15417 3.69583 7.20633 3.4875 7.194C3.27916 7.18167 3.1 7.10033 2.95 6.95C2.80833 6.80833 2.7395 6.6355 2.7435 6.4315C2.7475 6.2275 2.833 6.067 3 5.95C3.125 5.85833 3.25216 5.777 3.3815 5.706C3.51083 5.635 3.642 5.56633 3.775 5.5ZM5.3125 3.5375L3.625 2.35C4.00833 2.23333 4.398 2.14583 4.794 2.0875C5.19 2.02917 5.592 2 6 2C6.94166 2 7.85 2.15417 8.725 2.4625C9.6 2.77083 10.4042 3.21667 11.1375 3.8C11.3042 3.925 11.3875 4.09167 11.3875 4.3C11.3875 4.50833 11.3167 4.68333 11.175 4.825C11.025 4.975 10.8437 5.05217 10.631 5.0565C10.4183 5.06083 10.2288 4.99617 10.0625 4.8625C9.47916 4.4125 8.84166 4.073 8.15 3.844C7.45833 3.615 6.74166 3.50033 6 3.5C5.88333 3.5 5.76883 3.50217 5.6565 3.5065C5.54416 3.51083 5.4295 3.52117 5.3125 3.5375Z" fill="#C10007"/>
</svg>
