<svg width="12" height="12" viewBox="0 0 12 12" fill="none" xmlns="http://www.w3.org/2000/svg">
<path d="M6 10.5C5.65 10.5 5.35417 10.3792 5.1125 10.1375C4.87084 9.89583 4.75 9.6 4.75 9.25C4.75 8.9 4.87084 8.60417 5.1125 8.3625C5.35417 8.12083 5.65 8 6 8C6.35 8 6.64583 8.12083 6.8875 8.3625C7.12917 8.60417 7.25 8.9 7.25 9.25C7.25 9.6 7.12917 9.89583 6.8875 10.1375C6.64583 10.3792 6.35 10.5 6 10.5ZM6 5C6.625 5 7.21883 5.1 7.7815 5.3C8.34417 5.5 8.8545 5.775 9.3125 6.125C9.47917 6.25 9.56467 6.41467 9.569 6.619C9.57334 6.82333 9.50034 7.00033 9.35 7.15C9.20834 7.29167 9.03333 7.36467 8.825 7.369C8.61667 7.37333 8.42917 7.317 8.2625 7.2C7.94584 6.98333 7.59584 6.8125 7.2125 6.6875C6.82917 6.5625 6.425 6.5 6 6.5C5.575 6.5 5.17084 6.5625 4.7875 6.6875C4.40417 6.8125 4.05417 6.98333 3.7375 7.2C3.57083 7.31667 3.38333 7.37083 3.175 7.3625C2.96667 7.35417 2.79167 7.27917 2.65 7.1375C2.50834 6.9875 2.4375 6.8105 2.4375 6.6065C2.4375 6.4025 2.52083 6.23783 2.6875 6.1125C3.14583 5.7625 3.65633 5.4895 4.219 5.2935C4.78167 5.0975 5.37534 4.99967 6 5ZM6 2C7.04167 2 8.023 2.17083 8.944 2.5125C9.865 2.85417 10.692 3.3375 11.425 3.9625C11.5917 4.10417 11.6792 4.27917 11.6875 4.4875C11.6958 4.69583 11.625 4.875 11.475 5.025C11.3333 5.16667 11.1583 5.23967 10.95 5.244C10.7417 5.24833 10.5542 5.18367 10.3875 5.05C9.7875 4.55833 9.11467 4.17717 8.369 3.9065C7.62334 3.63583 6.83367 3.50033 6 3.5C5.16634 3.49967 4.37683 3.63517 3.6315 3.9065C2.88617 4.17783 2.21317 4.559 1.6125 5.05C1.44584 5.18333 1.25834 5.248 1.05 5.244C0.841668 5.24 0.666668 5.167 0.525002 5.025C0.375002 4.875 0.304168 4.69583 0.312502 4.4875C0.320835 4.27917 0.408335 4.10417 0.575002 3.9625C1.30834 3.3375 2.1355 2.85417 3.0565 2.5125C3.9775 2.17083 4.95867 2 6 2Z" fill="#008236"/>
</svg>
